# xmcd
#
# Track frame offsets: 
#        150
#        22517
#        41921
#        59681
#        79701
#        97513
#        118343
#        140252
#        160370
#        178895
#        203831
#
# Disc length: 3014 seconds
#
# Revision: 0
# Processed by: cddbd v1.4PL0 Copyright (c) Steve Scherf et al.
# Submitted via: ExactAudioCopy v0.95a3
#
DISCID=8e0bc40b
DTITLE=周传雄 - 我在身边
DYEAR=2003
DGENRE=Pop
TTITLE0=我在身边
TTITLE1=给你的歌
TTITLE2=多爱我一秒钟
TTITLE3=永夜
TTITLE4=有没有一首歌会让你想起我
TTITLE5=侧脸
TTITLE6=我难过
TTITLE7=花香
TTITLE8=不会唱情歌
TTITLE9=哈萨雅琪2003（合唱：5566）
TTITLE10=我在身边（伴奏版）
EXTD=
EXTT0=
EXTT1=
EXTT2=
EXTT3=
EXTT4=
EXTT5=
EXTT6=
EXTT7=
EXTT8=
EXTT9=
EXTT10=
PLAYORDER=
